<?xml version="1.0" encoding="iso-8859-1"?><!-- Generator: Adobe Illustrator 21.1.0, SVG Export Plug-In . SVG Version: 6.00 Build 0)  --><svg xmlns="http://www.w3.org/2000/svg" xmlns:xlink="http://www.w3.org/1999/xlink" viewBox="0 0 64 64" width="64px" height="64px"><g><path d="M54,10H32V5c0-1.65-1.35-3-3-3H17c-1.65,0-3,1.35-3,3v5h-4c-3.31,0-6,2.69-6,6v32c0,3.31,2.69,6,6,6h4v6.87c0,0.78,0.44,1.47,1.15,1.81c0.28,0.12,0.57,0.19,0.85,0.19c0.46,0,0.91-0.16,1.28-0.47l9.25-7.7c0.54-0.45,1.22-0.7,1.92-0.7H32h22c3.31,0,6-2.69,6-6v-5V16C60,12.69,57.31,10,54,10z M16,12v-2V5c0-0.55,0.45-1,1-1h12c0.55,0,1,0.45,1,1v5v2v16.72l-6-1.5V15c0-0.553-0.448-1-1-1s-1,0.447-1,1v12.22l-6,1.5V12z M29.738,30.715L25.926,35h-5.853l-3.811-4.285L23,29.031L29.738,30.715z M58,48c0,2.206-1.794,4-4,4H32.521l-2.583-3.69C29.97,48.211,30,48.11,30,48v-1c0-0.553-0.448-1-1-1c-0.208,0-0.389,0.078-0.549,0.186L26.92,44H58V48z M58,42H25c-0.373,0-0.715,0.207-0.887,0.538c-0.172,0.331-0.146,0.729,0.068,1.035L30.079,52H28.45c-1.17,0-2.31,0.41-3.2,1.16L16,60.87V54c0-1.1-0.9-2-2-2h-4c-2.21,0-4-1.79-4-4V16c0-2.21,1.79-4,4-4h4v18.8c0,0.24,0.09,0.48,0.25,0.66l4.621,5.198c0.002,0.002,0.002,0.004,0.004,0.006l3.378,3.8c0.043,0.048,0.102,0.073,0.153,0.112C22.577,40.709,22.777,40.8,23,40.8s0.423-0.091,0.595-0.224c0.05-0.039,0.11-0.064,0.153-0.112l3.378-3.8c0.002-0.002,0.002-0.004,0.004-0.006l4.621-5.198C31.91,31.28,32,31.04,32,30.8V12h22c2.21,0,4,1.79,4,4V42z"/><path d="M34,50c0.552,0,1-0.447,1-1v-2c0-0.553-0.448-1-1-1s-1,0.447-1,1v2C33,49.553,33.448,50,34,50z"/><path d="M39,50c0.552,0,1-0.447,1-1v-2c0-0.553-0.448-1-1-1s-1,0.447-1,1v2C38,49.553,38.448,50,39,50z"/><path d="M44,50c0.552,0,1-0.447,1-1v-2c0-0.553-0.448-1-1-1s-1,0.447-1,1v2C43,49.553,43.448,50,44,50z"/><path d="M49,50c0.552,0,1-0.447,1-1v-2c0-0.553-0.448-1-1-1s-1,0.447-1,1v2C48,49.553,48.448,50,49,50z"/><path d="M54,50c0.552,0,1-0.447,1-1v-2c0-0.553-0.448-1-1-1s-1,0.447-1,1v2C53,49.553,53.448,50,54,50z"/><path d="M23,12c0.552,0,1-0.447,1-1V7c0-0.553-0.448-1-1-1s-1,0.447-1,1v4C22,11.553,22.448,12,23,12z" fill='teal'/></g></svg>